<?xml version="1.0" encoding="utf-8"?>
<!-- Generator: Adobe Illustrator 22.1.0, SVG Export Plug-In . SVG Version: 6.00 Build 0)  -->
<svg version="1.1" id="Layer_1" xmlns="http://www.w3.org/2000/svg" xmlns:xlink="http://www.w3.org/1999/xlink" x="0px" y="0px"
	 viewBox="0 0 792 612" style="enable-background:new 0 0 792 612;" xml:space="preserve">
<style type="text/css">
	.st0{fill:none;stroke:#96C418;stroke-width:10;stroke-miterlimit:10;}
	.st1{clip-path:url(#SVGID_2_);}
	.st2{fill:#61A047;}
	.st3{clip-path:url(#SVGID_4_);}
	.st4{fill:url(#SVGID_5_);}
	.st5{clip-path:url(#SVGID_7_);}
	.st6{fill:#F7EB48;}
	.st7{fill:none;stroke:#61A047;stroke-miterlimit:10;}
</style>
<circle class="st0" cx="402" cy="298.5" r="280"/>
<title>Hidrosina Logo SGV</title>
<g>
	<g>
		<defs>
			<rect id="SVGID_1_" x="142.6" y="186.6" width="503.2" height="223.8"/>
		</defs>
		<clipPath id="SVGID_2_">
			<use xlink:href="#SVGID_1_"  style="overflow:visible;"/>
		</clipPath>
		<g class="st1">
			<path class="st2" d="M218.4,356.5h-22.6V318h-30.5v38.5h-15.4c-8,0-7.2-10.2-7.2-10.2v-81.8h22.6v35.2h30.5v-35.2h22.6V356.5z"/>
			<path class="st2" d="M248.2,355.8h-10c-11.3,0-10.1-11-10.1-11v-51.6h20.1V355.8z"/>
			<path class="st2" d="M515,355.8h-10.1c-11.3,0-10.1-11-10.1-11v-51.6H515V355.8z"/>
			<path class="st2" d="M297.2,338.5V310c-2.5-1.8-5.5-2.7-8.6-2.6c-3.8,0-7.4,1.7-9.6,4.8c-2.5,3.2-3.8,7.5-3.8,12.8
				c0,5.1,1.2,9.2,3.7,12.1c2.3,2.8,5.8,4.5,9.4,4.4C290.8,341.4,293.7,340.4,297.2,338.5 M317.4,355.8h-16.7V351
				c-4.4,4.4-10.1,6.6-17.3,6.6c-8.6,0-15.4-3-20.6-8.9c-5.1-5.9-7.7-13.7-7.7-23.3c0-9.8,3.1-18.1,9.3-24.7
				c5.8-6.2,12.6-9.3,20.6-9.3c4.2,0.1,8.3,1,12.1,2.6v-29.5h20.2V355.8z"/>
			<path class="st2" d="M372.2,293.2l-4.5,15.1c-1.2-0.4-2.5-0.5-3.8-0.5c-7.5,0-13.1,2.9-16.8,8.6v39.4h-20.2v-62.6h16.6v8.3
				c0.9-1.5,2.9-3.3,5.8-5.3c4.4-3.2,9.7-4.9,15.1-4.9C367.2,291.4,369.8,292,372.2,293.2"/>
			<path class="st2" d="M416.5,324.7c0-5.2-1.2-9.4-3.5-12.5c-2.2-3-5.8-4.8-9.5-4.7c-3.6-0.1-7.1,1.6-9.2,4.5
				c-2.3,3-3.4,7.1-3.4,12.3s1.2,9.5,3.7,12.5c2.3,3,5.9,4.7,9.7,4.6c3.6,0.1,6.9-1.5,9-4.4C415.4,334.1,416.5,330,416.5,324.7
				 M436.7,323.5c0,10-3.2,18.2-9.5,24.6c-6.3,6.4-14.5,9.6-24.4,9.6c-9.4,0-17.1-3.1-23.1-9.2s-9-14-9-23.5
				c0-9.8,3.2-17.8,9.5-24.2c6.4-6.3,14.4-9.5,24-9.5c9.4,0,17.2,3.1,23.3,9.2C433.6,306.7,436.6,314.3,436.7,323.5"/>
			<path class="st2" d="M487.4,337.5c0,5.4-2.3,10.4-6.4,13.9c-4.6,4.2-10.6,6.3-17.9,6.3c-6.1,0-12.1-1-17.8-3
				c-3.8-1.4-6.2-2.7-7.2-3.7l6.3-12.6c6.6,3.3,11.9,4.9,15.9,4.9c5,0,7.6-1.8,7.6-5.4c0-1.4-0.6-2.8-1.6-3.8
				c-0.8-0.8-4-2.5-9.3-4.9s-9.2-4.7-11.5-7c-3-2.8-4.8-6.7-4.8-10.8c-0.1-5.7,2.6-11.1,7.1-14.5c4.8-3.8,11-5.7,18.7-5.7
				c9.3,0,16.3,1.9,21,5.7l-6.2,11.9c-4.2-2.8-9.2-4.3-14.3-4.3c-4.7,0-7.1,1.6-7.1,4.8c0,2.1,2.4,4.2,7.2,6.3
				c6.7,3,11.1,5.3,13.1,6.9C484.9,326.1,487.6,331.7,487.4,337.5"/>
			<path class="st2" d="M584.8,355.8h-20.2V322c0-6.5-0.7-10.4-2-11.7c-1.5-1.4-3.6-2.1-5.7-2c-3.5,0.1-6.8,1.4-9.6,3.5v44h-20.2
				v-62.6h16.7v5c1.7-1.5,3.6-2.7,5.7-3.7c4-2.1,8.4-3.2,12.9-3.3c6.7,0,11.9,1.9,15.8,5.8c3.1,3.2,5.2,7.3,5.9,11.7
				c0.6,4.2,0.9,8.4,0.8,12.6L584.8,355.8z"/>
			<path class="st2" d="M627.2,339.3v-12.8c-9.2,0-15,1.1-17.3,3.4c-1.4,1.4-2.2,3.3-2.1,5.3c0,5,2.6,7.6,7.8,7.6
				C619.7,342.7,623.7,341.5,627.2,339.3 M637.9,355.8h-8.8v-5.3c-5.5,4.5-11.3,6.7-17.7,6.7c-6.3,0-11.3-1.9-14.8-5.7
				c-3.7-3.8-5.5-8.7-5.5-14.8c0-15.4,11.5-23.1,34.5-23.1h1.4c0-2.8-0.5-4.7-1.5-5.7c-1.3-1.3-3.8-2-7.5-2c-6.1,0-12,1.5-17.4,4.3
				l-6-12c6-4.5,14.2-6.8,24.5-6.8c9.6,0,16.8,2.4,21.7,7.3c2.5,2.6,4,5.8,4.5,9.3c0.4,3.7,0.6,7.4,0.5,11.1v28.1
				C645.8,347.3,646.8,355.8,637.9,355.8"/>
		</g>
	</g>
	<g>
		<defs>
			<path id="SVGID_3_" d="M305.5,199.8c13-3.4,26.4-5.1,39.8-5.1c58.9,0,114.4,32.2,136.8,77.7c0,0,8,14.3,19.4,14.3
				c14.3,0,11-14.3,11-14.3c-21.7-50.6-77.1-85.4-142-85.4C348.2,187,326.1,191.3,305.5,199.8"/>
		</defs>
		<clipPath id="SVGID_4_">
			<use xlink:href="#SVGID_3_"  style="overflow:visible;"/>
		</clipPath>
		<g class="st3">
			
				<linearGradient id="SVGID_5_" gradientUnits="userSpaceOnUse" x1="-1725.0088" y1="459.3342" x2="-1721.3387" y2="459.3342" gradientTransform="matrix(0 -21.25 21.25 0 -9350.1602 -36374.6602)">
				<stop  offset="0" style="stop-color:#C0CA40"/>
				<stop  offset="1" style="stop-color:#61A047"/>
			</linearGradient>
			<rect x="305.5" y="187" class="st4" width="210.3" height="99.7"/>
		</g>
	</g>
	<g>
		<defs>
			<rect id="SVGID_6_" x="142.6" y="186.6" width="503.2" height="223.8"/>
		</defs>
		<clipPath id="SVGID_7_">
			<use xlink:href="#SVGID_6_"  style="overflow:visible;"/>
		</clipPath>
		<g class="st5">
			<path class="st6" d="M257,272.2c23.6-41,80.9-69.8,139.3-69.8c31.6,0,60.7,9.3,84,25c-27.5-25.1-66.2-40.8-109.1-40.8
				c-64.5,0-119.5,35.4-141.2,85.2c0,0-6.5,14.5,8.5,14.5C251.3,286.3,257,272.2,257,272.2"/>
		</g>
	</g>
	<path class="st2" d="M268.9,389.3c0-7,3.9-11.5,10.1-11.5c4.2,0,7.6,1.7,9,7.1l-4.5,1.2c-0.9-3.1-2.4-4.3-4.5-4.3
		c-1.8,0-5.2,1-5.2,7.3s3,7.8,5.4,7.8c2.3,0.1,4.3-1.7,4.6-4h-3.9v-3.6h8.5v11.2h-4v-3.1h-0.1c-1.1,2.2-3.3,3.6-5.8,3.5
		C271.9,401,268.9,396.1,268.9,389.3z"/>
	<path class="st2" d="M292.1,384.5h4.8v2.7l0,0c1.1-1.9,3.2-3.1,5.4-3h0.1l-0.1,4.3c-0.2,0-1-0.1-1.3-0.1c-1.7,0-3.3,0.8-4.3,2.2v10
		H292L292.1,384.5z"/>
	<path class="st2" d="M304.3,396.2v-11.7h4.9v10.3c0,1.5,0.5,2.2,1.9,2.2c1.3-0.1,2.6-0.7,3.5-1.6v-10.9h4.8v16h-4.8V398
		c-1.3,1.8-3.3,2.8-5.5,2.8C306.2,400.9,304.3,399.5,304.3,396.2z"/>
	<path class="st2" d="M322.7,384.5h4.9v2.4c1.1-1.7,2.9-2.7,4.9-2.8c3.6,0,6.2,2.8,6.2,8.3s-2.6,8.3-6.2,8.3
		c-1.9,0.1-3.7-0.7-4.9-2.1v7.9h-4.9V384.5z M333.8,392.5c0-2.7-0.9-4.4-3.1-4.4c-1.2,0.1-2.3,0.7-3.1,1.6v5.9
		c0.8,0.9,2,1.5,3.2,1.5C332.7,397.2,333.8,395.5,333.8,392.5L333.8,392.5z"/>
	<path class="st2" d="M340.2,392.6c0-6.3,4.3-8.4,8.2-8.4s8.2,2.1,8.2,8.4s-4.3,8.3-8.2,8.3S340.2,398.8,340.2,392.6z M351.7,392.6
		c0-2.7-0.9-4.9-3.3-4.9s-3.4,2-3.4,4.9c0,2.7,0.9,4.9,3.4,4.9C350.7,397.5,351.8,395.5,351.7,392.6L351.7,392.6z"/>
	<path class="st2" d="M366.2,389.3c0-7,3.9-11.5,10.1-11.5c4.2,0,7.6,1.7,9,7.1l-4.5,1.2c-0.9-3.1-2.4-4.3-4.5-4.3
		c-1.8,0-5.2,1-5.2,7.3s3,7.8,5.4,7.8c2.3,0.1,4.3-1.7,4.6-4h-3.9v-3.6h8.5v11.2h-3.9v-3.1h-0.1c-1.1,2.2-3.3,3.6-5.8,3.5
		C369.2,401,366.2,396.1,366.2,389.3z"/>
	<path class="st2" d="M388.3,396.5c0-3.7,3.1-5.8,10.2-6.3v-0.4c0-1.2-0.6-1.9-2.2-1.9c-1.9,0.1-3.8,0.8-5.3,2l-2-2.8
		c2.2-2,5.1-3,8-2.9c4.4,0,6.2,2.2,6.2,6.3v6.2c-0.1,1.3,0.1,2.6,0.5,3.9h-4.8c-0.2-0.8-0.4-1.5-0.4-2.3c-1.4,1.7-3.4,2.6-5.6,2.6
		c-2.4,0.2-4.4-1.6-4.6-4C388.3,396.8,388.3,396.6,388.3,396.5z M398.4,395.8v-3c-3.8,0.4-5.5,1.4-5.5,2.8c0,1,0.7,1.5,1.8,1.5
		C396.1,397.2,397.4,396.7,398.4,395.8L398.4,395.8z"/>
	<path class="st2" d="M405.2,398.4l1.9-2.7c1.6,1.3,3.5,2,5.6,2.1c1.5,0,2.5-0.5,2.5-1.6s-0.8-1.5-3-1.9c-3-0.5-6.3-1.3-6.3-5
		c0-3.2,2.6-5.1,6.2-5.1c2.5-0.1,5.1,0.7,7,2.3l-1.9,2.7c-1.4-1-3-1.7-4.7-1.8c-1.4,0-2.2,0.5-2.2,1.4s0.9,1.4,2.9,1.7
		c3.2,0.5,6.5,1.3,6.5,4.9c0,3.9-3.4,5.4-7.1,5.4C410,401,407.3,400.2,405.2,398.4z"/>
	<path class="st2" d="M421.2,392.6c0-6.3,4.3-8.4,8.2-8.4s8.2,2.1,8.2,8.4s-4.3,8.3-8.2,8.3S421.2,398.8,421.2,392.6z M432.7,392.6
		c0-2.7-0.9-4.9-3.3-4.9s-3.4,2-3.4,4.9c0,2.7,0.9,4.9,3.4,4.9C431.6,397.5,432.7,395.5,432.7,392.6L432.7,392.6z"/>
	<path class="st2" d="M440.2,378.3h4.8v22.3h-4.8V378.3z"/>
	<path class="st2" d="M448.6,378.5h4.9v3.9h-4.9V378.5z M448.6,384.5h4.8v16h-4.8V384.5z"/>
	<path class="st2" d="M457,384.5h4.8v2.5c1.3-1.8,3.3-2.8,5.5-2.9c2.7,0,4.7,1.4,4.7,4.7v11.7h-4.9v-10.2c0-1.4-0.5-2.2-1.9-2.2
		c-1.3,0.1-2.6,0.7-3.5,1.6v10.8H457V384.5z"/>
	<path class="st2" d="M474.3,392.6c-0.3-4.3,3-8.1,7.4-8.4c0.2,0,0.5,0,0.7,0c3.3,0,7.4,1.7,7.4,8.9v0.7h-10.6
		c0.2,2.6,1.7,3.7,3.7,3.7c1.8,0,3.4-0.7,4.8-1.9l1.8,2.9c-2,1.6-4.5,2.5-7,2.4C478.3,400.9,474.3,398.8,474.3,392.6z M485.4,391
		c-0.2-2.2-1.3-3.3-3.1-3.3c-1.5,0-2.8,1-3.2,3.3H485.4z"/>
	<path class="st2" d="M492.2,384.5h4.8v2.7l0,0c1.1-1.9,3.2-3.1,5.4-3h0.1l-0.1,4.3c-0.2,0-1-0.1-1.3-0.1c-1.7,0-3.3,0.8-4.3,2.2v10
		h-4.8V384.5z"/>
	<path class="st2" d="M503.7,392.6c0-6.3,4.3-8.4,8.2-8.4s8.2,2.1,8.2,8.4s-4.3,8.3-8.2,8.3S503.7,398.8,503.7,392.6z M515.2,392.6
		c0-2.7-0.9-4.9-3.3-4.9s-3.4,2-3.4,4.9c0,2.7,0.9,4.9,3.4,4.9C514.2,397.5,515.2,395.5,515.2,392.6L515.2,392.6z"/>
	<path class="st2" d="M660.2,344.4h3.4c2.2,0,3.5,1,3.5,2.8c0.1,1.4-0.9,2.6-2.3,2.7l2.4,4.4H666l-2.4-4.3h-2.2v4.3h-1.2V344.4z
		 M663.5,349c1.5,0,2.4-0.4,2.4-1.8s-0.9-1.7-2.4-1.7h-2.2v3.5H663.5z"/>
	<circle class="st7" cx="663.4" cy="349.6" r="8.1"/>
</g>
</svg>
